<?xml version="1.0" encoding="UTF-8" standalone="no"?>
<!DOCTYPE svg PUBLIC "-//W3C//DTD SVG 1.1//EN"
 "http://www.w3.org/Graphics/SVG/1.1/DTD/svg11.dtd">
<!-- Generated by graphviz version 2.30.1 (20130221.2233)
 -->
<!-- Title: g Pages: 1 -->
<svg width="1144pt" height="520pt"
 viewBox="0.00 0.00 1144.00 520.00" xmlns="http://www.w3.org/2000/svg" xmlns:xlink="http://www.w3.org/1999/xlink">
<g id="graph0" class="graph" transform="scale(1 1) rotate(0) translate(4 516)">
<title>g</title>
<polygon fill="white" stroke="white" points="-4,5 -4,-516 1141,-516 1141,5 -4,5"/>
<g id="clust1" class="cluster"><title>cluster_twitter</title>
<polygon fill="none" stroke="black" stroke-dasharray="1,5" points="24,-344 24,-420 227,-420 227,-344 24,-344"/>
<text text-anchor="middle" x="125.5" y="-402" font-family="Times,serif" font-size="14.00">http://api.twitter.com</text>
</g>
<g id="clust2" class="cluster"><title>cluster_watson</title>
<polygon fill="none" stroke="black" stroke-dasharray="1,5" points="758,-228 758,-304 965,-304 965,-228 758,-228"/>
<text text-anchor="middle" x="861.5" y="-286" font-family="Times,serif" font-size="14.00">http://gateway.watsonplatform.net</text>
</g>
<g id="clust3" class="cluster"><title>cluster_alchemy</title>
<polygon fill="none" stroke="black" stroke-dasharray="1,5" points="8,-428 8,-504 1128,-504 1128,-428 8,-428"/>
<text text-anchor="middle" x="568" y="-486" font-family="Times,serif" font-size="14.00">http://access.alchemyapi.com/calls</text>
</g>
<g id="clust4" class="cluster"><title>cluster_elastic</title>
<polygon fill="none" stroke="black" points="530,-220 530,-336 750,-336 750,-220 530,-220"/>
<text text-anchor="middle" x="640" y="-318" font-family="Times,serif" font-size="14.00">es://</text>
</g>
<g id="clust5" class="cluster"><title>cluster_espostdb</title>
<polygon fill="none" stroke="black" points="538,-228 538,-304 616,-304 616,-228 538,-228"/>
<text text-anchor="middle" x="577" y="-286" font-family="Times,serif" font-size="14.00">/postdb</text>
</g>
<g id="clust6" class="cluster"><title>cluster_esdisambiguated</title>
<polygon fill="none" stroke="black" points="624,-228 624,-304 742,-304 742,-228 624,-228"/>
<text text-anchor="middle" x="683" y="-286" font-family="Times,serif" font-size="14.00">/disambiguated</text>
</g>
<g id="clust7" class="cluster"><title>cluster_neo</title>
<polygon fill="none" stroke="black" points="86,-8 86,-156 202,-156 202,-8 86,-8"/>
<text text-anchor="middle" x="144" y="-138" font-family="Times,serif" font-size="14.00">neo4j://</text>
</g>
<!-- twitterfriends -->
<g id="node1" class="node"><title>twitterfriends</title>
<ellipse fill="none" stroke="black" cx="73" cy="-370" rx="40.303" ry="18"/>
<text text-anchor="middle" x="73" y="-364.4" font-family="Times,serif" font-size="14.00">/friends</text>
</g>
<!-- neofollows -->
<g id="node11" class="node"><title>neofollows</title>
<ellipse fill="none" stroke="black" cx="144" cy="-34" rx="49.4747" ry="18"/>
<text text-anchor="middle" x="144" y="-28.4" font-family="Times,serif" font-size="14.00">e:[follow]</text>
</g>
<!-- twitterfriends&#45;&gt;neofollows -->
<g id="edge20" class="edge"><title>twitterfriends&#45;&gt;neofollows</title>
<path fill="none" stroke="black" d="M70.2209,-351.878C63.655,-306.465 50.6721,-180.125 92,-88 97.235,-76.3306 106.223,-65.7454 115.269,-57.1569"/>
<polygon fill="black" stroke="black" points="117.672,-59.7034 122.8,-50.4322 113.009,-54.4821 117.672,-59.7034"/>
</g>
<!-- neopages -->
<g id="node10" class="node"><title>neopages</title>
<ellipse fill="none" stroke="black" cx="144" cy="-106" rx="43.3141" ry="18"/>
<text text-anchor="middle" x="144" y="-100.4" font-family="Times,serif" font-size="14.00">v:[page]</text>
</g>
<!-- twitterfriends&#45;&gt;neopages -->
<g id="edge21" class="edge"><title>twitterfriends&#45;&gt;neopages</title>
<path fill="none" stroke="black" d="M80.7857,-352.069C82.9668,-346.968 85.2243,-341.312 87,-336 110.888,-264.537 129.872,-177.563 138.669,-134.248"/>
<polygon fill="black" stroke="black" points="142.147,-134.705 140.683,-124.212 135.284,-133.328 142.147,-134.705"/>
</g>
<!-- twitterstatuses -->
<g id="node2" class="node"><title>twitterstatuses</title>
<ellipse fill="none" stroke="black" cx="175" cy="-370" rx="43.1445" ry="18"/>
<text text-anchor="middle" x="175" y="-364.4" font-family="Times,serif" font-size="14.00">/statuses</text>
</g>
<!-- esposts -->
<g id="node8" class="node"><title>esposts</title>
<polygon fill="none" stroke="black" points="607.408,-272 546.592,-272 546.592,-236 607.408,-236 607.408,-272"/>
<text text-anchor="middle" x="577" y="-248.4" font-family="Times,serif" font-size="14.00">/activity</text>
</g>
<!-- twitterstatuses&#45;&gt;esposts -->
<g id="edge22" class="edge"><title>twitterstatuses&#45;&gt;esposts</title>
<path fill="none" stroke="black" d="M200.999,-355.525C209.465,-351.467 219.001,-347.236 228,-344 336.912,-304.833 470.78,-275.777 536.579,-262.686"/>
<polygon fill="black" stroke="black" points="537.406,-266.091 546.541,-260.723 536.053,-259.223 537.406,-266.091"/>
</g>
<!-- personalityinsights -->
<g id="node3" class="node"><title>personalityinsights</title>
<ellipse fill="none" stroke="black" cx="817" cy="-254" rx="50.9099" ry="18"/>
<text text-anchor="middle" x="817" y="-248.4" font-family="Times,serif" font-size="14.00">/v2/profile</text>
</g>
<!-- PersonalityInsightsPipeline -->
<g id="node12" class="node"><title>PersonalityInsightsPipeline</title>
<ellipse fill="none" stroke="black" cx="577" cy="-182" rx="116.581" ry="18"/>
<text text-anchor="middle" x="577" y="-176.4" font-family="Times,serif" font-size="14.00">PersonalityInsightsPipeline</text>
</g>
<!-- personalityinsights&#45;&gt;PersonalityInsightsPipeline -->
<g id="edge4" class="edge"><title>personalityinsights&#45;&gt;PersonalityInsightsPipeline</title>
<path fill="none" stroke="black" stroke-dasharray="1,5" d="M789.927,-238.708C776.919,-232.287 760.941,-225.039 746,-220 719.259,-210.98 689.381,-203.597 662.271,-197.865"/>
<polygon fill="black" stroke="black" points="662.921,-194.425 652.419,-195.827 661.503,-201.28 662.921,-194.425"/>
</g>
<!-- sentiment -->
<g id="node4" class="node"><title>sentiment</title>
<ellipse fill="none" stroke="black" cx="133" cy="-454" rx="116.354" ry="18"/>
<text text-anchor="middle" x="133" y="-448.4" font-family="Times,serif" font-size="14.00">/url/URLGetTextSentiment</text>
</g>
<!-- SentimentPipeline -->
<g id="node16" class="node"><title>SentimentPipeline</title>
<ellipse fill="none" stroke="black" cx="319" cy="-370" rx="81.2704" ry="18"/>
<text text-anchor="middle" x="319" y="-364.4" font-family="Times,serif" font-size="14.00">SentimentPipeline</text>
</g>
<!-- sentiment&#45;&gt;SentimentPipeline -->
<g id="edge16" class="edge"><title>sentiment&#45;&gt;SentimentPipeline</title>
<path fill="none" stroke="black" stroke-dasharray="1,5" d="M184.034,-437.781C199.357,-432.688 216.059,-426.608 231,-420 249.047,-412.018 268.284,-401.551 284.154,-392.341"/>
<polygon fill="black" stroke="black" points="286.231,-395.18 293.075,-387.092 282.681,-389.147 286.231,-395.18"/>
</g>
<!-- entities -->
<g id="node5" class="node"><title>entities</title>
<ellipse fill="none" stroke="black" cx="415" cy="-454" rx="146.914" ry="18"/>
<text text-anchor="middle" x="415" y="-448.4" font-family="Times,serif" font-size="14.00">/url/URLGetRankedNamedEntities</text>
</g>
<!-- EntitiesPipeline -->
<g id="node13" class="node"><title>EntitiesPipeline</title>
<ellipse fill="none" stroke="black" cx="491" cy="-370" rx="72.2842" ry="18"/>
<text text-anchor="middle" x="491" y="-364.4" font-family="Times,serif" font-size="14.00">EntitiesPipeline</text>
</g>
<!-- entities&#45;&gt;EntitiesPipeline -->
<g id="edge7" class="edge"><title>entities&#45;&gt;EntitiesPipeline</title>
<path fill="none" stroke="black" stroke-dasharray="1,5" d="M430.747,-436.01C441.723,-424.167 456.524,-408.198 468.709,-395.05"/>
<polygon fill="black" stroke="black" points="471.302,-397.402 475.533,-387.688 466.168,-392.643 471.302,-397.402"/>
</g>
<!-- keywords -->
<g id="node6" class="node"><title>keywords</title>
<ellipse fill="none" stroke="black" cx="710" cy="-454" rx="129.369" ry="18"/>
<text text-anchor="middle" x="710" y="-448.4" font-family="Times,serif" font-size="14.00">/url/URLGetRankedKeywords</text>
</g>
<!-- KeywordsPipeline -->
<g id="node14" class="node"><title>KeywordsPipeline</title>
<ellipse fill="none" stroke="black" cx="664" cy="-370" rx="82.0691" ry="18"/>
<text text-anchor="middle" x="664" y="-364.4" font-family="Times,serif" font-size="14.00">KeywordsPipeline</text>
</g>
<!-- keywords&#45;&gt;KeywordsPipeline -->
<g id="edge10" class="edge"><title>keywords&#45;&gt;KeywordsPipeline</title>
<path fill="none" stroke="black" stroke-dasharray="1,5" d="M700.469,-436.01C694.116,-424.685 685.646,-409.587 678.469,-396.792"/>
<polygon fill="black" stroke="black" points="681.464,-394.978 673.519,-387.969 675.359,-398.403 681.464,-394.978"/>
</g>
<!-- taxonomy -->
<g id="node7" class="node"><title>taxonomy</title>
<ellipse fill="none" stroke="black" cx="989" cy="-454" rx="131.076" ry="18"/>
<text text-anchor="middle" x="989" y="-448.4" font-family="Times,serif" font-size="14.00">/url/URLGetRankedTaxonomy</text>
</g>
<!-- TaxonomyPipeline -->
<g id="node15" class="node"><title>TaxonomyPipeline</title>
<ellipse fill="none" stroke="black" cx="848" cy="-370" rx="83.2764" ry="18"/>
<text text-anchor="middle" x="848" y="-364.4" font-family="Times,serif" font-size="14.00">TaxonomyPipeline</text>
</g>
<!-- taxonomy&#45;&gt;TaxonomyPipeline -->
<g id="edge13" class="edge"><title>taxonomy&#45;&gt;TaxonomyPipeline</title>
<path fill="none" stroke="black" stroke-dasharray="1,5" d="M960.467,-436.406C938.489,-423.625 907.958,-405.869 884.251,-392.082"/>
<polygon fill="black" stroke="black" points="885.935,-389.013 875.531,-387.011 882.416,-395.064 885.935,-389.013"/>
</g>
<!-- esposts&#45;&gt;PersonalityInsightsPipeline -->
<g id="edge3" class="edge"><title>esposts&#45;&gt;PersonalityInsightsPipeline</title>
<path fill="none" stroke="black" d="M577,-235.697C577,-227.983 577,-218.712 577,-210.112"/>
<polygon fill="black" stroke="black" points="580.5,-210.104 577,-200.104 573.5,-210.104 580.5,-210.104"/>
</g>
<!-- esposts&#45;&gt;EntitiesPipeline -->
<g id="edge6" class="edge"><title>esposts&#45;&gt;EntitiesPipeline</title>
<path fill="none" stroke="black" d="M559.111,-272.104C542.827,-290.959 519.534,-321.498 504.674,-343.249"/>
<polygon fill="black" stroke="black" points="501.684,-341.423 499.052,-351.686 507.51,-345.305 501.684,-341.423"/>
</g>
<!-- esposts&#45;&gt;KeywordsPipeline -->
<g id="edge9" class="edge"><title>esposts&#45;&gt;KeywordsPipeline</title>
<path fill="none" stroke="black" d="M576.724,-272.138C581.625,-289.506 594.337,-316.522 611,-336 614.329,-339.891 618.193,-343.6 622.306,-347.032"/>
<polygon fill="black" stroke="black" points="620.379,-349.965 630.446,-353.267 624.636,-344.407 620.379,-349.965"/>
</g>
<!-- esposts&#45;&gt;TaxonomyPipeline -->
<g id="edge12" class="edge"><title>esposts&#45;&gt;TaxonomyPipeline</title>
<path fill="none" stroke="black" d="M574.316,-272.009C577.009,-291.178 588.495,-321.544 611,-336 623.643,-344.121 731.168,-341.593 746,-344 759.413,-346.177 773.682,-349.491 787.201,-353.002"/>
<polygon fill="black" stroke="black" points="786.326,-356.39 796.889,-355.579 788.125,-349.626 786.326,-356.39"/>
</g>
<!-- esposts&#45;&gt;SentimentPipeline -->
<g id="edge15" class="edge"><title>esposts&#45;&gt;SentimentPipeline</title>
<path fill="none" stroke="black" d="M546.468,-266.599C499.725,-285.965 410.803,-325.109 358.995,-348.994"/>
<polygon fill="black" stroke="black" points="357.373,-345.888 349.772,-353.268 360.317,-352.239 357.373,-345.888"/>
</g>
<!-- EntityIndexPipeline -->
<g id="node17" class="node"><title>EntityIndexPipeline</title>
<ellipse fill="none" stroke="black" cx="1038" cy="-370" rx="87.9178" ry="18"/>
<text text-anchor="middle" x="1038" y="-364.4" font-family="Times,serif" font-size="14.00">EntityIndexPipeline</text>
</g>
<!-- esposts&#45;&gt;EntityIndexPipeline -->
<g id="edge18" class="edge"><title>esposts&#45;&gt;EntityIndexPipeline</title>
<path fill="none" stroke="black" d="M580.686,-272.146C585.842,-291.444 597.251,-321.931 620,-336 635.125,-345.354 922.384,-341.565 940,-344 953.444,-345.859 967.705,-348.874 981.062,-352.179"/>
<polygon fill="black" stroke="black" points="980.516,-355.652 991.072,-354.747 982.256,-348.871 980.516,-355.652"/>
</g>
<!-- esdisambiguated -->
<g id="node9" class="node"><title>esdisambiguated</title>
<polygon fill="none" stroke="black" points="733.156,-272 632.844,-272 632.844,-236 733.156,-236 733.156,-272"/>
<text text-anchor="middle" x="683" y="-248.4" font-family="Times,serif" font-size="14.00">/disambiguated</text>
</g>
<!-- neopages&#45;&gt;neofollows -->
<g id="edge1" class="edge"><title>neopages&#45;&gt;neofollows</title>
<path fill="none" stroke="black" stroke-dasharray="1,5" d="M138.122,-88.055C137.304,-80.3456 137.061,-71.0269 137.395,-62.3642"/>
<polygon fill="black" stroke="black" points="140.894,-62.4915 138.087,-52.2753 133.911,-62.0122 140.894,-62.4915"/>
</g>
<!-- neofollows&#45;&gt;neopages -->
<g id="edge2" class="edge"><title>neofollows&#45;&gt;neopages</title>
<path fill="none" stroke="black" stroke-dasharray="1,5" d="M149.913,-52.2753C150.715,-60.03 150.94,-69.3618 150.591,-78.0054"/>
<polygon fill="black" stroke="black" points="147.094,-77.8325 149.878,-88.055 154.077,-78.3275 147.094,-77.8325"/>
</g>
<!-- PersonalityInsightsPipeline&#45;&gt;neopages -->
<g id="edge5" class="edge"><title>PersonalityInsightsPipeline&#45;&gt;neopages</title>
<path fill="none" stroke="black" d="M502.071,-168.195C413.53,-153.063 268.734,-128.317 193.259,-115.418"/>
<polygon fill="black" stroke="black" points="193.529,-111.914 183.083,-113.679 192.35,-118.814 193.529,-111.914"/>
</g>
<!-- EntitiesPipeline&#45;&gt;esposts -->
<g id="edge8" class="edge"><title>EntitiesPipeline&#45;&gt;esposts</title>
<path fill="none" stroke="black" d="M508.645,-352.179C524.942,-333.344 548.4,-302.601 563.334,-280.74"/>
<polygon fill="black" stroke="black" points="566.349,-282.527 568.98,-272.264 560.523,-278.646 566.349,-282.527"/>
</g>
<!-- KeywordsPipeline&#45;&gt;esposts -->
<g id="edge11" class="edge"><title>KeywordsPipeline&#45;&gt;esposts</title>
<path fill="none" stroke="black" d="M646.41,-352.234C640.433,-347.474 634.09,-341.95 629,-336 615.071,-319.717 603.903,-298.168 595.135,-281.389"/>
<polygon fill="black" stroke="black" points="598.013,-279.345 590.247,-272.138 591.824,-282.615 598.013,-279.345"/>
</g>
<!-- TaxonomyPipeline&#45;&gt;esposts -->
<g id="edge14" class="edge"><title>TaxonomyPipeline&#45;&gt;esposts</title>
<path fill="none" stroke="black" d="M808.279,-354.007C794.403,-350.132 778.688,-346.384 764,-344 749.168,-341.593 641.643,-344.121 629,-336 609.924,-323.746 598.765,-300.061 591.069,-281.454"/>
<polygon fill="black" stroke="black" points="594.237,-279.954 587.229,-272.009 587.753,-282.591 594.237,-279.954"/>
</g>
<!-- SentimentPipeline&#45;&gt;esposts -->
<g id="edge17" class="edge"><title>SentimentPipeline&#45;&gt;esposts</title>
<path fill="none" stroke="black" d="M357.46,-354.096C405.799,-333.84 488.092,-297.559 537.092,-274.966"/>
<polygon fill="black" stroke="black" points="538.827,-278.019 546.428,-270.638 535.883,-271.668 538.827,-278.019"/>
</g>
<!-- EntityIndexPipeline&#45;&gt;esdisambiguated -->
<g id="edge19" class="edge"><title>EntityIndexPipeline&#45;&gt;esdisambiguated</title>
<path fill="none" stroke="black" d="M990.55,-354.791C974.626,-350.589 956.676,-346.459 940,-344 919.535,-340.983 772.653,-344.942 754,-336 729.544,-324.276 710.01,-299.838 697.671,-280.856"/>
<polygon fill="black" stroke="black" points="700.614,-278.96 692.359,-272.319 694.671,-282.659 700.614,-278.96"/>
</g>
</g>
</svg>
